if (_typeface_js && _typeface_js.loadFace) _typeface_js.loadFace({"glyphs":{"S":{"x_min":0,"x_max":638.9375,"ha":725,"o":"m 638 320 q 635 272 638 295 q 625 225 632 248 q 580 134 609 176 q 511 63 551 93 q 422 16 470 33 q 319 0 373 0 q 195 25 252 0 q 93 93 137 50 q 25 195 50 137 q 0 320 0 254 l 233 320 q 258 259 233 284 q 319 233 283 233 q 370 250 348 233 q 401 294 393 268 q 405 319 405 305 q 380 377 405 355 q 319 400 355 400 q 195 424 252 400 q 93 491 137 448 q 25 590 50 533 q 0 713 0 647 q 3 761 0 737 q 13 808 6 784 q 58 898 29 857 q 127 970 87 940 q 216 1016 168 1000 q 319 1033 265 1033 q 443 1008 386 1033 q 545 939 501 983 q 613 837 588 895 q 638 713 638 779 l 405 713 q 380 775 405 750 q 319 800 355 800 q 268 782 290 800 q 237 738 245 765 q 233 713 233 729 q 258 655 233 677 q 319 633 283 633 q 443 609 386 633 q 545 542 501 584 q 613 443 588 500 q 638 320 638 386 "},"K":{"x_min":0,"x_max":732,"ha":779,"o":"m 732 1033 l 291 515 l 730 0 l 497 0 l 233 293 l 233 0 l 0 0 l 0 1033 l 233 1033 l 233 737 l 498 1033 l 732 1033 l 732 1033 "},"7":{"x_min":-6.9375,"x_max":658.390625,"ha":722,"o":"m 658 800 l 226 0 l -6 0 l 423 800 l 1 800 l 1 1033 l 657 1033 l 658 800 l 658 800 "},"d":{"x_min":0,"x_max":730.609375,"ha":807,"o":"m 730 516 q 691 318 730 412 q 577 150 652 225 q 421 43 508 81 q 238 0 334 5 l 208 0 l 0 0 l 0 1033 l 208 1033 q 407 995 312 1033 q 577 883 502 957 q 691 714 652 808 q 730 516 730 620 "},",":{"x_min":1.390625,"x_max":233.359375,"ha":324,"o":"m 1 233 l 233 233 l 233 0 l 159 -129 l 16 -129 l 90 0 l 1 0 l 1 233 l 1 233 "},"Y":{"x_min":-9.71875,"x_max":780.625,"ha":833,"o":"m 780 1033 l 502 516 l 502 0 l 269 0 l 269 516 l -9 1033 l 223 1033 l 386 733 l 547 1033 l 780 1033 l 780 1033 "},"E":{"x_min":0,"x_max":633.390625,"ha":725,"o":"m 633 800 l 233 800 l 233 633 l 527 633 l 527 400 l 233 400 l 233 233 l 633 233 l 633 0 l 0 0 l 0 1033 l 633 1033 l 633 800 l 633 800 "},"y":{"x_min":-9.71875,"x_max":780.625,"ha":833,"o":"m 780 1033 l 502 516 l 502 0 l 269 0 l 269 516 l -9 1033 l 223 1033 l 386 733 l 547 1033 l 780 1033 l 780 1033 "},"g":{"x_min":-11.109375,"x_max":790.34375,"ha":903,"o":"m 790 415 q 790 401 790 408 q 788 387 790 394 l 788 0 l 573 0 l 573 52 q 485 13 531 27 q 390 -1 438 -1 l 388 -1 q 234 30 306 -1 q 104 122 161 62 q 20 253 50 180 q -11 406 -9 326 l -11 620 q 18 777 -11 704 q 104 909 48 851 q 234 1001 161 969 q 388 1033 306 1033 l 390 1033 q 543 1001 470 1033 q 675 909 616 969 q 760 775 730 850 q 790 616 790 700 l 556 616 q 543 687 556 654 q 507 745 530 720 q 454 785 484 770 q 388 800 423 800 q 324 785 354 800 q 271 745 294 770 q 235 687 248 720 q 222 616 222 654 l 222 415 q 235 344 222 377 q 271 286 248 311 q 324 246 294 261 q 388 231 354 231 q 461 250 429 231 q 518 298 494 268 l 387 298 l 387 513 l 790 513 l 790 415 "},"e":{"x_min":0,"x_max":633.390625,"ha":725,"o":"m 633 800 l 233 800 l 233 633 l 527 633 l 527 400 l 233 400 l 233 233 l 633 233 l 633 0 l 0 0 l 0 1033 l 633 1033 l 633 800 l 633 800 "},"J":{"x_min":0,"x_max":640.328125,"ha":736,"o":"m 640 315 q 613 192 638 250 q 544 92 587 134 q 443 25 501 50 q 319 0 384 0 q 195 25 252 0 q 93 93 137 50 q 25 195 50 137 q 0 320 0 254 l 233 320 q 258 259 233 284 q 319 233 283 233 q 381 259 355 233 q 406 320 406 284 l 406 1033 l 640 1033 l 640 315 "},"q":{"x_min":0,"x_max":890.34375,"ha":888,"o":"m 608 58 q 401 -1 512 -1 l 400 -1 q 245 30 318 -1 q 115 122 172 62 q 29 254 59 180 q 0 411 0 327 l 0 652 q 35 791 5 726 q 115 909 65 857 q 245 1001 172 969 q 400 1033 318 1033 l 401 1033 q 554 1001 481 1033 q 686 909 627 969 q 764 791 734 857 q 801 652 794 726 l 801 622 l 801 494 l 801 411 q 762 237 798 316 l 890 0 l 640 0 l 608 58 "},"b":{"x_min":0,"x_max":597.265625,"ha":688,"o":"m 450 515 q 556 416 516 480 q 597 272 597 351 q 575 165 597 215 q 517 78 554 115 q 430 20 480 41 q 323 -1 380 -1 l 316 -1 l 0 -1 l 0 1032 l 316 1032 l 323 1032 q 430 1010 380 1032 q 517 952 480 988 q 575 865 554 915 q 597 758 597 815 q 556 614 597 679 q 450 515 516 550 "},"D":{"x_min":0,"x_max":730.609375,"ha":807,"o":"m 730 516 q 691 318 730 412 q 577 150 652 225 q 421 43 508 81 q 238 0 334 5 l 208 0 l 0 0 l 0 1033 l 208 1033 q 407 995 312 1033 q 577 883 502 957 q 691 714 652 808 q 730 516 730 620 "},"z":{"x_min":0,"x_max":673.671875,"ha":771,"o":"m 673 1033 l 673 800 l 270 233 l 673 233 l 673 0 l 0 0 l 0 233 l 401 800 l 0 800 l 0 1033 l 673 1033 l 673 1033 "},"w":{"x_min":2.78125,"x_max":1252.875,"ha":1338,"o":"m 1019 1033 l 1252 1033 l 1001 0 l 763 0 l 627 561 l 491 0 l 254 0 l 2 1033 l 236 1033 l 373 472 l 509 1033 l 747 1033 l 883 472 l 1019 1033 l 1019 1033 "},"$":{"x_min":1.390625,"x_max":556.984375,"ha":631,"o":"m 279 641 q 386 619 336 641 q 475 559 437 597 q 534 471 512 522 q 556 363 556 420 q 516 218 556 283 q 409 118 476 154 l 409 0 l 176 0 l 176 105 q 105 146 137 120 q 50 206 73 172 q 14 280 27 240 q 1 363 1 320 l 231 363 q 245 330 231 344 q 279 316 259 316 q 312 330 298 316 q 326 363 326 344 q 315 394 326 381 q 287 409 304 406 l 279 409 q 171 431 222 409 q 83 491 120 454 q 23 579 45 529 q 1 687 1 630 q 50 845 1 776 q 176 947 98 915 l 176 1040 l 409 1040 l 409 934 q 516 833 476 898 q 556 687 556 768 l 326 687 q 312 721 326 707 q 279 736 298 736 q 245 721 259 736 q 231 687 231 707 q 243 657 231 670 q 270 641 254 644 l 279 641 l 279 641 "},"-":{"x_min":0,"x_max":718.109375,"ha":814,"o":"m 718 418 l 0 418 l 0 651 l 718 651 l 718 418 l 718 418 "},"Q":{"x_min":0,"x_max":890.34375,"ha":888,"o":"m 608 58 q 401 -1 512 -1 l 400 -1 q 245 30 318 -1 q 115 122 172 62 q 29 254 59 180 q 0 411 0 327 l 0 652 q 35 791 5 726 q 115 909 65 857 q 245 1001 172 969 q 400 1033 318 1033 l 401 1033 q 554 1001 481 1033 q 686 909 627 969 q 764 791 734 857 q 801 652 794 726 l 801 622 l 801 494 l 801 411 q 762 237 798 316 l 890 0 l 640 0 l 608 58 "},"M":{"x_min":1.390625,"x_max":957.015625,"ha":1057,"o":"m 957 1033 l 957 1033 l 957 0 l 723 0 l 723 361 l 597 0 l 363 0 l 234 372 l 234 0 l 1 0 l 1 1033 l 238 1033 l 480 336 l 723 1033 l 723 1033 l 957 1033 l 957 1033 "},"C":{"x_min":-15.28125,"x_max":786.171875,"ha":865,"o":"m 386 231 q 450 246 420 231 q 503 286 480 261 q 539 344 526 311 q 552 415 552 377 l 786 415 q 757 256 786 331 q 670 122 727 181 q 541 30 613 62 q 386 -1 468 -1 l 384 -1 q 230 30 302 -1 q 100 122 158 62 q 15 253 45 180 q -15 406 -13 326 l -15 620 q 15 777 -13 704 q 100 909 44 851 q 230 1001 158 969 q 384 1033 302 1033 l 386 1033 q 541 1001 468 1033 q 670 909 613 969 q 757 775 727 850 q 786 616 786 700 l 552 616 q 539 687 552 654 q 503 745 526 720 q 450 785 480 770 q 386 800 420 800 q 320 785 351 800 q 267 745 290 770 q 231 687 244 720 q 218 616 218 654 l 218 415 q 231 344 218 377 q 267 286 244 311 q 320 246 290 261 q 386 231 351 231 "},"L":{"x_min":0,"x_max":509.765625,"ha":599,"o":"m 233 233 l 509 233 l 509 0 l 0 0 l 0 1033 l 233 1033 l 233 233 l 233 233 "},"!":{"x_min":4.171875,"x_max":237.515625,"ha":326,"o":"m 237 0 l 5 0 l 5 233 l 237 233 l 237 0 l 237 0 m 237 1033 l 237 315 l 4 315 l 4 1033 l 237 1033 l 237 1033 "}," ":{"x_min":0,"x_max":0,"ha":695},"X":{"x_min":2.78125,"x_max":791.734375,"ha":876,"o":"m 791 1033 l 513 516 l 791 0 l 558 0 l 397 300 l 236 0 l 2 0 l 280 516 l 2 1033 l 236 1033 l 397 733 l 558 1033 l 791 1033 l 791 1033 "},"P":{"x_min":0,"x_max":636.15625,"ha":690,"o":"m 315 1033 q 440 1008 381 1033 q 542 939 498 983 q 611 837 586 895 q 636 712 636 779 q 611 587 636 645 q 542 485 586 529 q 440 416 498 441 q 315 391 381 391 l 313 391 l 233 391 l 233 0 l 0 0 l 0 1033 l 313 1033 l 315 1033 l 315 1033 "},"%":{"x_min":1.390625,"x_max":990.359375,"ha":1051,"o":"m 901 1033 l 294 0 l 61 0 l 668 1033 l 901 1033 m 336 695 q 322 630 336 661 q 286 577 309 600 q 234 541 263 554 q 169 527 204 527 q 104 541 134 527 q 50 577 73 554 q 14 630 27 600 q 1 695 1 661 q 14 761 1 730 q 50 814 27 791 q 104 850 73 837 q 169 863 134 863 q 234 850 204 863 q 286 814 263 837 q 322 761 309 791 q 336 695 336 730 m 990 356 q 977 291 990 322 q 941 238 963 261 q 887 202 918 215 q 822 188 857 188 q 757 202 787 188 q 703 238 726 215 q 667 291 680 261 q 654 356 654 322 q 667 421 654 391 q 703 474 680 451 q 757 510 726 497 q 822 523 787 523 q 887 510 857 523 q 941 474 918 497 q 977 421 963 451 q 990 356 990 391 "},"+":{"x_min":0,"x_max":719.5,"ha":817,"o":"m 719 650 l 719 416 l 476 416 l 476 173 l 243 173 l 243 416 l 0 416 l 0 650 l 243 650 l 243 891 l 476 891 l 476 650 l 719 650 l 719 650 "},"'":{"x_min":-1.390625,"x_max":230.578125,"ha":329,"o":"m -1 1033 l 230 1033 l 230 800 l 156 670 l 15 670 l 88 800 l -1 800 l -1 1033 l -1 1033 "},"T":{"x_min":-12.5,"x_max":690.328125,"ha":765,"o":"m 690 1033 l 690 800 l 455 800 l 455 0 l 222 0 l 222 800 l -12 800 l -12 1033 l 690 1033 l 690 1033 "},"a":{"x_min":-40.28125,"x_max":932.015625,"ha":1003,"o":"m 680 0 l 541 400 l 350 400 l 211 0 l -40 0 l 318 1033 l 573 1033 l 932 0 l 680 0 l 680 0 "},"=":{"x_min":0,"x_max":718.109375,"ha":831,"o":"m 718 669 l 0 669 l 0 902 l 718 902 l 718 669 l 718 669 m 718 186 l 0 186 l 0 419 l 718 419 l 718 186 l 718 186 "},"N":{"x_min":1.390625,"x_max":762.5625,"ha":839,"o":"m 529 1033 l 762 1033 l 762 0 l 526 0 l 234 577 l 234 0 l 1 0 l 1 1033 l 238 1033 l 529 456 l 529 1033 l 529 1033 "},"":{"x_min":0,"x_max":0,"ha":695},"2":{"x_min":-9.71875,"x_max":629.21875,"ha":710,"o":"m 305 233 l 626 233 l 626 0 l 5 0 l 5 233 l 383 669 q 395 713 395 688 q 393 738 395 725 q 361 782 384 765 q 309 800 338 800 q 248 775 273 800 q 223 713 223 750 l -9 713 q 15 837 -9 779 q 84 939 40 895 q 186 1008 127 983 q 309 1033 244 1033 q 412 1016 363 1033 q 501 970 461 1000 q 570 898 541 940 q 615 808 600 857 q 629 713 629 765 q 604 593 629 647 q 536 491 580 538 l 305 233 "},"j":{"x_min":0,"x_max":640.328125,"ha":736,"o":"m 640 315 q 613 192 638 250 q 544 92 587 134 q 443 25 501 50 q 319 0 384 0 q 195 25 252 0 q 93 93 137 50 q 25 195 50 137 q 0 320 0 254 l 233 320 q 258 259 233 284 q 319 233 283 233 q 381 259 355 233 q 406 320 406 284 l 406 1033 l 640 1033 l 640 315 "},"Z":{"x_min":0,"x_max":673.671875,"ha":771,"o":"m 673 1033 l 673 800 l 270 233 l 673 233 l 673 0 l 0 0 l 0 233 l 401 800 l 0 800 l 0 1033 l 673 1033 l 673 1033 "},"u":{"x_min":1.390625,"x_max":802.84375,"ha":885,"o":"m 802 412 q 772 256 801 330 q 687 125 743 183 q 557 31 630 63 q 402 0 484 0 l 401 0 q 247 31 320 0 q 116 125 175 63 q 32 256 62 183 q 1 412 2 330 l 1 1034 l 234 1034 l 234 416 q 247 345 234 379 q 284 287 261 312 q 337 247 306 262 q 402 233 368 233 q 467 247 437 233 q 520 287 497 262 q 556 345 543 312 q 569 416 569 379 l 569 1034 l 802 1034 l 802 412 "},"1":{"x_min":11.28125,"x_max":373.8125,"ha":456,"o":"m 141 694 l 140 0 l 373 0 l 373 1033 l 139 1033 l 12 968 l 11 720 l 139 788 l 141 694 "},"k":{"x_min":0,"x_max":732,"ha":779,"o":"m 732 1033 l 291 515 l 730 0 l 497 0 l 233 293 l 233 0 l 0 0 l 0 1033 l 233 1033 l 233 737 l 498 1033 l 732 1033 l 732 1033 "},"t":{"x_min":-12.5,"x_max":690.328125,"ha":765,"o":"m 690 1033 l 690 800 l 455 800 l 455 0 l 222 0 l 222 800 l -12 800 l -12 1033 l 690 1033 l 690 1033 "},"W":{"x_min":2.78125,"x_max":1252.875,"ha":1338,"o":"m 1019 1033 l 1252 1033 l 1001 0 l 763 0 l 627 561 l 491 0 l 254 0 l 2 1033 l 236 1033 l 373 472 l 509 1033 l 747 1033 l 883 472 l 1019 1033 l 1019 1033 "},"v":{"x_min":6.9375,"x_max":962.578125,"ha":1003,"o":"m 729 1033 l 962 1033 l 602 0 l 366 0 l 6 1033 l 240 1033 l 484 330 l 729 1033 l 729 1033 "},"s":{"x_min":0,"x_max":638.9375,"ha":725,"o":"m 638 320 q 635 272 638 295 q 625 225 632 248 q 580 134 609 176 q 511 63 551 93 q 422 16 470 33 q 319 0 373 0 q 195 25 252 0 q 93 93 137 50 q 25 195 50 137 q 0 320 0 254 l 233 320 q 258 259 233 284 q 319 233 283 233 q 370 250 348 233 q 401 294 393 268 q 405 319 405 305 q 380 377 405 355 q 319 400 355 400 q 195 424 252 400 q 93 491 137 448 q 25 590 50 533 q 0 713 0 647 q 3 761 0 737 q 13 808 6 784 q 58 898 29 857 q 127 970 87 940 q 216 1016 168 1000 q 319 1033 265 1033 q 443 1008 386 1033 q 545 939 501 983 q 613 837 588 895 q 638 713 638 779 l 405 713 q 380 775 405 750 q 319 800 355 800 q 268 782 290 800 q 237 738 245 765 q 233 713 233 729 q 258 655 233 677 q 319 633 283 633 q 443 609 386 633 q 545 542 501 584 q 613 443 588 500 q 638 320 638 386 "},"B":{"x_min":0,"x_max":597.265625,"ha":688,"o":"m 450 515 q 556 416 516 480 q 597 272 597 351 q 575 165 597 215 q 517 78 554 115 q 430 20 480 41 q 323 -1 380 -1 l 316 -1 l 0 -1 l 0 1032 l 316 1032 l 323 1032 q 430 1010 380 1032 q 517 952 480 988 q 575 865 554 915 q 597 758 597 815 q 556 614 597 679 q 450 515 516 550 "},"?":{"x_min":-12.5,"x_max":637.546875,"ha":701,"o":"m 127 233 l 359 233 l 359 0 l 127 0 l 127 233 m 318 1032 q 442 1006 384 1032 q 543 936 500 980 q 612 835 587 893 q 637 711 637 777 q 616 602 637 648 q 565 520 595 555 q 498 459 534 484 q 430 415 462 434 q 393 393 412 402 q 366 370 375 384 q 361 355 362 363 q 358 338 359 347 q 358 319 356 329 l 127 319 l 127 361 q 145 451 127 412 q 190 520 163 490 q 250 571 218 550 q 308 609 281 593 q 354 641 336 627 q 384 666 373 654 q 400 688 395 677 q 405 711 405 698 q 379 773 405 747 q 318 800 354 800 q 247 773 276 800 q 218 711 218 747 l -12 711 q 13 835 -12 777 q 84 936 40 893 q 188 1006 129 980 q 316 1032 248 1032 l 318 1032 l 318 1032 "},"H":{"x_min":0,"x_max":743.109375,"ha":853,"o":"m 509 1033 l 743 1033 l 743 0 l 509 0 l 509 400 l 233 400 l 233 0 l 0 0 l 0 1033 l 233 1033 l 233 633 l 509 633 l 509 1033 l 509 1033 "},"c":{"x_min":-15.28125,"x_max":786.171875,"ha":865,"o":"m 386 231 q 450 246 420 231 q 503 286 480 261 q 539 344 526 311 q 552 415 552 377 l 786 415 q 757 256 786 331 q 670 122 727 181 q 541 30 613 62 q 386 -1 468 -1 l 384 -1 q 230 30 302 -1 q 100 122 158 62 q 15 253 45 180 q -15 406 -13 326 l -15 620 q 15 777 -13 704 q 100 909 44 851 q 230 1001 158 969 q 384 1033 302 1033 l 386 1033 q 541 1001 468 1033 q 670 909 613 969 q 757 775 727 850 q 786 616 786 700 l 552 616 q 539 687 552 654 q 503 745 526 720 q 450 785 480 770 q 386 800 420 800 q 320 785 351 800 q 267 745 290 770 q 231 687 244 720 q 218 616 218 654 l 218 415 q 231 344 218 377 q 267 286 244 311 q 320 246 290 261 q 386 231 351 231 "},"&":{"x_min":0,"x_max":883.40625,"ha":974,"o":"m 748 266 l 876 137 l 733 -5 l 607 120 q 491 32 558 65 q 345 0 425 0 q 211 27 275 0 q 101 100 148 54 q 27 210 54 147 q 0 344 0 273 q 41 509 0 434 q 152 630 83 584 q 116 699 129 662 q 104 777 104 736 q 122 871 104 827 q 175 947 141 915 q 252 999 208 980 q 345 1018 295 1018 q 439 999 395 1018 q 516 947 483 980 q 567 871 548 915 q 586 777 586 827 q 549 649 586 707 q 452 562 512 591 l 609 404 l 745 538 l 883 400 l 748 266 "},"I":{"x_min":0,"x_max":233.359375,"ha":332,"o":"m 233 1033 l 233 0 l 0 0 l 0 1033 l 233 1033 l 233 1033 "},"G":{"x_min":-11.109375,"x_max":790.34375,"ha":903,"o":"m 790 415 q 790 401 790 408 q 788 387 790 394 l 788 0 l 573 0 l 573 52 q 485 13 531 27 q 390 -1 438 -1 l 388 -1 q 234 30 306 -1 q 104 122 161 62 q 20 253 50 180 q -11 406 -9 326 l -11 620 q 18 777 -11 704 q 104 909 48 851 q 234 1001 161 969 q 388 1033 306 1033 l 390 1033 q 543 1001 470 1033 q 675 909 616 969 q 760 775 730 850 q 790 616 790 700 l 556 616 q 543 687 556 654 q 507 745 530 720 q 454 785 484 770 q 388 800 423 800 q 324 785 354 800 q 271 745 294 770 q 235 687 248 720 q 222 616 222 654 l 222 415 q 235 344 222 377 q 271 286 248 311 q 324 246 294 261 q 388 231 354 231 q 461 250 429 231 q 518 298 494 268 l 387 298 l 387 513 l 790 513 l 790 415 "},"`":{"x_min":-1.390625,"x_max":230.578125,"ha":329,"o":"m -1 1033 l 230 1033 l 230 800 l 156 670 l 15 670 l 88 800 l -1 800 l -1 1033 l -1 1033 "},"U":{"x_min":1.390625,"x_max":802.84375,"ha":885,"o":"m 802 412 q 772 256 801 330 q 687 125 743 183 q 557 31 630 63 q 402 0 484 0 l 401 0 q 247 31 320 0 q 116 125 175 63 q 32 256 62 183 q 1 412 2 330 l 1 1034 l 234 1034 l 234 416 q 247 345 234 379 q 284 287 261 312 q 337 247 306 262 q 402 233 368 233 q 467 247 437 233 q 520 287 497 262 q 556 345 543 312 q 569 416 569 379 l 569 1034 l 802 1034 l 802 412 "},"F":{"x_min":1.390625,"x_max":634.765625,"ha":725,"o":"m 634 800 l 234 800 l 234 633 l 529 633 l 529 400 l 234 400 l 234 0 l 1 0 l 1 1033 l 634 1033 l 634 800 l 634 800 "},"r":{"x_min":0,"x_max":657,"ha":725,"o":"m 416 0 l 236 391 l 233 391 l 233 0 l 0 0 l 0 1033 l 313 1033 l 315 1033 q 441 1008 381 1033 q 543 939 500 983 q 612 837 587 895 q 637 712 637 779 q 588 542 637 618 q 461 426 540 466 l 657 0 l 416 0 "},":":{"x_min":0,"x_max":231.96875,"ha":364,"o":"m 0 183 l 0 416 l 231 416 l 231 183 l 0 183 l 0 183 m 0 879 l 231 879 l 231 645 l 0 645 l 0 879 l 0 879 "},"x":{"x_min":2.78125,"x_max":791.734375,"ha":876,"o":"m 791 1033 l 513 516 l 791 0 l 558 0 l 397 300 l 236 0 l 2 0 l 280 516 l 2 1033 l 236 1033 l 397 733 l 558 1033 l 791 1033 l 791 1033 "},"*":{"x_min":-25,"x_max":525.046875,"ha":607,"o":"m 525 850 l 387 812 l 484 715 l 377 607 l 250 734 l 120 604 l 12 711 l 113 812 l -25 850 l 13 997 l 172 955 l 172 1100 l 325 1100 l 325 954 l 486 997 l 525 850 l 525 850 "},"V":{"x_min":6.9375,"x_max":962.578125,"ha":1003,"o":"m 729 1033 l 962 1033 l 602 0 l 366 0 l 6 1033 l 240 1033 l 484 330 l 729 1033 l 729 1033 "}," ":{"x_min":0,"x_max":0,"ha":695},"\u001f":{"x_min":0,"x_max":0,"ha":695},"h":{"x_min":0,"x_max":743.109375,"ha":853,"o":"m 509 1033 l 743 1033 l 743 0 l 509 0 l 509 400 l 233 400 l 233 0 l 0 0 l 0 1033 l 233 1033 l 233 633 l 509 633 l 509 1033 l 509 1033 "},"0":{"x_min":0,"x_max":637.546875,"ha":704,"o":"m 636 318 q 637 316 636 318 l 636 316 q 611 193 636 251 q 543 93 586 136 q 442 25 500 50 q 319 0 384 0 q 197 25 255 0 q 95 92 138 50 q 25 189 51 134 q 0 302 0 244 l 0 715 q 25 838 0 780 q 93 940 50 897 q 195 1008 137 983 q 319 1033 252 1033 q 442 1008 384 1033 q 543 940 500 983 q 611 838 586 897 q 636 715 636 780 l 636 713 l 637 713 l 636 713 q 636 696 636 705 q 637 680 637 687 l 637 351 q 636 336 637 344 q 636 319 636 327 l 636 318 l 636 318 "},".":{"x_min":0,"x_max":231.96875,"ha":318,"o":"m 231 0 l 0 0 l 0 233 l 231 233 l 231 0 l 231 0 "},"@":{"x_min":1.390625,"x_max":1032.03125,"ha":1085,"o":"m 515 730 q 599 713 559 730 q 668 666 638 695 q 713 598 697 637 q 730 515 730 559 l 730 504 q 739 481 733 488 q 748 475 745 475 l 748 231 q 652 251 698 231 q 570 306 607 270 q 543 302 556 304 q 515 300 530 300 q 431 317 470 300 q 363 363 393 334 q 318 431 334 393 q 301 515 301 470 q 318 598 301 559 q 363 666 334 637 q 431 713 393 695 q 515 730 470 730 m 409 265 q 594 254 500 226 l 777 70 q 650 17 716 34 q 515 0 584 0 q 416 9 465 0 q 323 37 368 19 q 318 40 320 37 l 315 40 q 151 151 225 77 q 138 165 144 158 q 125 180 131 173 q 34 333 66 247 q 1 515 1 419 q 41 716 1 622 q 152 879 81 809 q 315 990 222 950 q 515 1030 409 1030 q 716 990 622 1030 q 879 879 809 950 q 991 716 950 809 q 1032 515 1032 622 l 787 515 q 766 621 787 572 q 707 707 744 670 q 621 766 670 744 q 515 787 572 787 q 409 766 459 787 q 322 707 359 744 q 264 621 286 670 q 243 515 243 572 q 287 366 243 431 q 402 268 331 300 q 405 266 404 266 q 407 265 406 266 q 409 265 408 265 m 1032 515 q 1009 404 1032 456 q 948 314 987 352 q 858 254 909 276 q 748 231 807 231 l 748 475 q 776 486 765 475 q 787 515 787 498 l 1032 515 "},";":{"x_min":0,"x_max":230.578125,"ha":340,"o":"m 0 186 l 0 419 l 230 419 l 230 186 l 156 56 l 15 56 l 88 186 l 0 186 l 0 186 m 0 882 l 230 882 l 230 648 l 0 648 l 0 882 l 0 882 "},"f":{"x_min":1.390625,"x_max":634.765625,"ha":725,"o":"m 634 800 l 234 800 l 234 633 l 529 633 l 529 400 l 234 400 l 234 0 l 1 0 l 1 1033 l 634 1033 l 634 800 l 634 800 "},"i":{"x_min":0,"x_max":233.359375,"ha":332,"o":"m 233 1033 l 233 0 l 0 0 l 0 1033 l 233 1033 l 233 1033 "},"A":{"x_min":-40.28125,"x_max":932.015625,"ha":1003,"o":"m 680 0 l 541 400 l 350 400 l 211 0 l -40 0 l 318 1033 l 573 1033 l 932 0 l 680 0 l 680 0 "},"6":{"x_min":0,"x_max":640.328125,"ha":710,"o":"m 640 318 q 614 193 640 251 q 545 92 588 136 q 444 23 502 48 q 320 -1 386 -1 q 197 22 255 -1 q 95 89 138 47 q 25 188 51 131 q 0 308 0 244 l 0 733 q 26 849 0 794 q 96 945 52 904 q 198 1012 140 987 q 320 1037 256 1037 q 444 1012 386 1037 q 546 943 502 987 q 615 841 590 900 q 640 716 640 783 l 406 716 q 381 778 406 752 q 320 804 356 804 q 259 778 284 804 q 234 716 234 752 l 233 716 l 233 625 q 320 637 275 637 q 444 612 386 637 q 545 544 502 587 q 614 443 588 501 q 640 319 640 384 l 640 318 "},"n":{"x_min":1.390625,"x_max":762.5625,"ha":839,"o":"m 529 1033 l 762 1033 l 762 0 l 526 0 l 234 577 l 234 0 l 1 0 l 1 1033 l 238 1033 l 529 456 l 529 1033 l 529 1033 "},"O":{"x_min":-1.390625,"x_max":800.0625,"ha":888,"o":"m 800 411 q 769 255 798 329 q 684 123 740 181 q 554 30 627 62 q 400 -1 481 -1 l 398 -1 q 245 30 318 -1 q 113 122 172 62 q 29 254 59 180 q -1 411 0 327 l -1 652 q 35 791 5 726 q 113 909 65 857 q 244 1001 172 969 q 398 1033 316 1033 l 400 1033 q 554 1001 481 1033 q 684 909 627 969 q 763 791 734 857 q 800 652 793 726 l 800 622 l 800 494 l 800 411 l 800 411 "},"3":{"x_min":0,"x_max":638.9375,"ha":700,"o":"m 638 320 q 625 225 638 268 q 580 134 609 176 q 511 63 551 93 q 422 16 470 33 q 319 0 373 0 q 195 25 252 0 q 93 93 137 50 q 25 195 50 137 q 0 320 0 254 l 233 320 q 258 259 233 284 q 319 233 283 233 q 370 250 348 233 q 401 294 393 268 q 405 319 405 305 q 380 377 405 355 q 319 400 355 400 l 172 400 l 172 633 l 319 633 q 380 655 355 633 q 405 713 405 677 q 401 738 405 729 q 370 782 393 765 q 319 800 348 800 q 258 775 283 800 q 233 713 233 750 l 0 713 q 25 837 0 779 q 93 939 50 895 q 195 1008 137 983 q 319 1033 252 1033 q 422 1016 373 1033 q 511 970 470 1000 q 580 898 551 940 q 625 808 609 857 q 638 713 638 765 q 620 606 638 657 q 568 516 601 556 q 620 427 601 476 q 638 320 638 377 "},"m":{"x_min":1.390625,"x_max":957.015625,"ha":1057,"o":"m 957 1033 l 957 1033 l 957 0 l 723 0 l 723 361 l 597 0 l 363 0 l 234 372 l 234 0 l 1 0 l 1 1033 l 238 1033 l 480 336 l 723 1033 l 723 1033 l 957 1033 l 957 1033 "},"9":{"x_min":1.390625,"x_max":640.328125,"ha":710,"o":"m 1 718 q 26 842 1 784 q 95 943 51 900 q 196 1012 138 987 q 320 1037 254 1037 q 443 1013 386 1037 q 545 946 501 988 q 614 847 588 904 q 640 727 640 791 l 640 302 q 614 187 640 243 q 545 90 588 131 q 443 23 501 48 q 320 -1 384 -1 q 196 23 254 -1 q 95 92 138 48 q 26 194 51 136 q 1 319 1 252 l 234 319 q 259 257 234 283 q 320 231 284 231 q 381 257 356 231 q 406 319 406 283 l 406 411 q 320 398 365 398 q 196 423 254 398 q 95 491 138 448 q 26 593 51 534 q 1 716 1 651 l 1 718 "},"8":{"x_min":0,"x_max":638.9375,"ha":701,"o":"m 638 318 q 613 194 638 252 q 544 93 587 136 q 443 25 501 50 q 319 0 384 0 q 195 25 254 0 q 94 93 137 50 q 25 194 51 136 q 0 318 0 252 l 0 319 q 19 427 0 377 q 72 516 38 476 q 19 606 38 556 q 0 713 0 655 l 0 715 q 25 838 0 780 q 94 940 51 897 q 195 1008 137 983 q 319 1033 254 1033 q 443 1008 384 1033 q 544 940 501 983 q 613 838 587 897 q 638 715 638 780 l 638 713 q 619 606 638 655 q 566 516 600 556 q 619 427 600 476 q 638 319 638 377 l 638 318 "},"l":{"x_min":0,"x_max":509.765625,"ha":599,"o":"m 233 233 l 509 233 l 509 0 l 0 0 l 0 1033 l 233 1033 l 233 233 l 233 233 "},"p":{"x_min":0,"x_max":636.15625,"ha":690,"o":"m 315 1033 q 440 1008 381 1033 q 542 939 498 983 q 611 837 586 895 q 636 712 636 779 q 611 587 636 645 q 542 485 586 529 q 440 416 498 441 q 315 391 381 391 l 313 391 l 233 391 l 233 0 l 0 0 l 0 1033 l 313 1033 l 315 1033 l 315 1033 "},"4":{"x_min":-11.109375,"x_max":687.5625,"ha":750,"o":"m 687 633 l 687 400 l 562 400 l 562 0 l 329 0 l 329 400 l -11 400 l -11 633 l -11 633 l 329 1030 l 329 1033 l 562 1033 l 562 633 l 687 633 l 687 633 "},"R":{"x_min":0,"x_max":657,"ha":725,"o":"m 416 0 l 236 391 l 233 391 l 233 0 l 0 0 l 0 1033 l 313 1033 l 315 1033 q 441 1008 381 1033 q 543 939 500 983 q 612 837 587 895 q 637 712 637 779 q 588 542 637 618 q 461 426 540 466 l 657 0 l 416 0 "},"o":{"x_min":-1.390625,"x_max":800.0625,"ha":888,"o":"m 800 411 q 769 255 798 329 q 684 123 740 181 q 554 30 627 62 q 400 -1 481 -1 l 398 -1 q 245 30 318 -1 q 113 122 172 62 q 29 254 59 180 q -1 411 0 327 l -1 652 q 35 791 5 726 q 113 909 65 857 q 244 1001 172 969 q 398 1033 316 1033 l 400 1033 q 554 1001 481 1033 q 684 909 627 969 q 763 791 734 857 q 800 652 793 726 l 800 622 l 800 494 l 800 411 l 800 411 "},"5":{"x_min":-1.390625,"x_max":638.9375,"ha":707,"o":"m 233 797 l 233 707 q 275 715 254 712 q 319 718 295 718 q 454 693 395 718 q 554 630 513 669 q 617 541 595 591 q 638 441 638 491 l 638 402 l 638 398 l 638 319 q 613 194 638 252 q 545 92 588 136 q 443 23 501 48 q 319 -1 384 -1 q 195 23 252 -1 q 93 92 137 48 q 25 194 50 136 q 0 319 0 252 l 233 319 q 258 257 233 283 q 319 231 283 231 q 383 257 355 231 q 411 319 411 283 l 411 398 q 386 458 411 431 q 319 484 362 484 q 258 459 283 484 q 233 398 233 434 l 0 398 l 0 797 l -1 797 l -1 1030 l 619 1030 l 619 797 l 233 797 "}}}
